<mxfile host="app.diagrams.net" modified="2023-08-10T17:24:24.784Z" agent="Mozilla/5.0 (Windows NT 10.0; Win64; x64) AppleWebKit/537.36 (KHTML, like Gecko) Chrome/115.0.0.0 Safari/537.36 Edg/115.0.1901.200" etag="iKjB4zxfLs5yg67EiyFF" version="21.6.6" type="github">
  <diagram name="第 1 页" id="uQNQzTAxdutqSN_e-CFt">
    <mxGraphModel dx="1647" dy="1105" grid="1" gridSize="10" guides="1" tooltips="1" connect="1" arrows="1" fold="1" page="1" pageScale="1" pageWidth="827" pageHeight="1169" math="0" shadow="0">
      <root>
        <mxCell id="0" />
        <mxCell id="1" parent="0" />
        <mxCell id="G3-LT5RlxalLHWrTvcE--42" value="" style="rounded=0;whiteSpace=wrap;html=1;fillColor=#fff2cc;strokeColor=none;" vertex="1" parent="1">
          <mxGeometry width="930" height="450" as="geometry" />
        </mxCell>
        <mxCell id="G3-LT5RlxalLHWrTvcE--43" value="1. 问题收集" style="ellipse;whiteSpace=wrap;html=1;aspect=fixed;strokeColor=#66B2FF;" vertex="1" parent="1">
          <mxGeometry x="30" y="50" width="80" height="80" as="geometry" />
        </mxCell>
        <mxCell id="G3-LT5RlxalLHWrTvcE--44" value="2. 过滤/整理" style="ellipse;whiteSpace=wrap;html=1;aspect=fixed;strokeColor=#66B2FF;" vertex="1" parent="1">
          <mxGeometry x="250" y="50" width="80" height="80" as="geometry" />
        </mxCell>
        <mxCell id="G3-LT5RlxalLHWrTvcE--45" value="3. 转变需求" style="ellipse;whiteSpace=wrap;html=1;aspect=fixed;strokeColor=#66B2FF;" vertex="1" parent="1">
          <mxGeometry x="470" y="50" width="80" height="80" as="geometry" />
        </mxCell>
        <mxCell id="G3-LT5RlxalLHWrTvcE--46" value="4. 总结反馈" style="ellipse;whiteSpace=wrap;html=1;aspect=fixed;strokeColor=#66B2FF;" vertex="1" parent="1">
          <mxGeometry x="710" y="50" width="80" height="80" as="geometry" />
        </mxCell>
        <mxCell id="G3-LT5RlxalLHWrTvcE--47" value="" style="html=1;shadow=0;dashed=0;align=center;verticalAlign=middle;shape=mxgraph.arrows2.arrow;dy=0.6;dx=40;notch=15;fillColor=#dae8fc;gradientDirection=east;strokeColor=none;gradientColor=#7ea6e0;" vertex="1" parent="1">
          <mxGeometry x="120" y="55" width="100" height="70" as="geometry" />
        </mxCell>
        <mxCell id="G3-LT5RlxalLHWrTvcE--48" value="" style="html=1;shadow=0;dashed=0;align=center;verticalAlign=middle;shape=mxgraph.arrows2.arrow;dy=0.6;dx=40;notch=15;fillColor=#dae8fc;gradientDirection=east;strokeColor=none;gradientColor=#7ea6e0;" vertex="1" parent="1">
          <mxGeometry x="344" y="55" width="100" height="70" as="geometry" />
        </mxCell>
        <mxCell id="G3-LT5RlxalLHWrTvcE--49" value="" style="html=1;shadow=0;dashed=0;align=center;verticalAlign=middle;shape=mxgraph.arrows2.arrow;dy=0.6;dx=40;notch=15;fillColor=#dae8fc;gradientDirection=east;strokeColor=none;gradientColor=#7ea6e0;" vertex="1" parent="1">
          <mxGeometry x="580" y="55" width="100" height="70" as="geometry" />
        </mxCell>
        <mxCell id="G3-LT5RlxalLHWrTvcE--50" value="业务对象：商品部/销售部/物流部" style="text;html=1;align=left;verticalAlign=middle;resizable=0;points=[];autosize=1;strokeColor=none;fillColor=none;fontStyle=1" vertex="1" parent="1">
          <mxGeometry x="470" y="400" width="200" height="30" as="geometry" />
        </mxCell>
        <mxCell id="G3-LT5RlxalLHWrTvcE--51" value="" style="rounded=0;whiteSpace=wrap;html=1;strokeColor=#ede8c9;" vertex="1" parent="1">
          <mxGeometry x="30" y="160" width="210" height="220" as="geometry" />
        </mxCell>
        <mxCell id="G3-LT5RlxalLHWrTvcE--52" value="钉钉云集" style="text;html=1;align=center;verticalAlign=middle;resizable=0;points=[];autosize=1;strokeColor=none;fillColor=none;fontStyle=1" vertex="1" parent="1">
          <mxGeometry x="100" y="160" width="70" height="30" as="geometry" />
        </mxCell>
        <mxCell id="G3-LT5RlxalLHWrTvcE--53" value="1. 固定频率收集问题" style="rounded=1;whiteSpace=wrap;html=1;" vertex="1" parent="1">
          <mxGeometry x="75" y="210" width="120" height="60" as="geometry" />
        </mxCell>
        <mxCell id="G3-LT5RlxalLHWrTvcE--54" value="2. 不定期提交反馈" style="rounded=1;whiteSpace=wrap;html=1;" vertex="1" parent="1">
          <mxGeometry x="75" y="290" width="120" height="60" as="geometry" />
        </mxCell>
        <mxCell id="G3-LT5RlxalLHWrTvcE--55" value="" style="rounded=0;whiteSpace=wrap;html=1;strokeColor=#ede8c9;" vertex="1" parent="1">
          <mxGeometry x="260" y="160" width="170" height="220" as="geometry" />
        </mxCell>
        <mxCell id="G3-LT5RlxalLHWrTvcE--56" value="优云" style="text;html=1;align=center;verticalAlign=middle;resizable=0;points=[];autosize=1;strokeColor=none;fillColor=none;fontStyle=1" vertex="1" parent="1">
          <mxGeometry x="324" y="160" width="50" height="30" as="geometry" />
        </mxCell>
        <mxCell id="G3-LT5RlxalLHWrTvcE--57" value="1. 根据人/ &lt;b&gt;货&lt;/b&gt;/ 场分类过滤形成有效信息" style="rounded=1;whiteSpace=wrap;html=1;" vertex="1" parent="1">
          <mxGeometry x="289" y="210" width="120" height="60" as="geometry" />
        </mxCell>
        <mxCell id="G3-LT5RlxalLHWrTvcE--58" value="2. 汇总问题到仪表盘以便线下评估" style="rounded=1;whiteSpace=wrap;html=1;" vertex="1" parent="1">
          <mxGeometry x="289" y="290" width="120" height="60" as="geometry" />
        </mxCell>
        <mxCell id="G3-LT5RlxalLHWrTvcE--59" value="" style="rounded=0;whiteSpace=wrap;html=1;strokeColor=#FFFFCC;" vertex="1" parent="1">
          <mxGeometry x="460" y="270" width="190" height="110" as="geometry" />
        </mxCell>
        <mxCell id="G3-LT5RlxalLHWrTvcE--60" value="云集" style="text;html=1;align=center;verticalAlign=middle;resizable=0;points=[];autosize=1;strokeColor=none;fillColor=none;fontStyle=1" vertex="1" parent="1">
          <mxGeometry x="540" y="270" width="50" height="30" as="geometry" />
        </mxCell>
        <mxCell id="G3-LT5RlxalLHWrTvcE--61" value="3. 筛选过的图片抽取到云投图库" style="rounded=1;whiteSpace=wrap;html=1;" vertex="1" parent="1">
          <mxGeometry x="505" y="303" width="120" height="60" as="geometry" />
        </mxCell>
        <mxCell id="G3-LT5RlxalLHWrTvcE--62" value="" style="shape=flexArrow;endArrow=classic;html=1;rounded=0;entryX=0;entryY=0.5;entryDx=0;entryDy=0;" edge="1" parent="1" target="G3-LT5RlxalLHWrTvcE--61">
          <mxGeometry width="50" height="50" relative="1" as="geometry">
            <mxPoint x="420" y="260" as="sourcePoint" />
            <mxPoint x="470" y="210" as="targetPoint" />
            <Array as="points">
              <mxPoint x="420" y="333" />
            </Array>
          </mxGeometry>
        </mxCell>
        <mxCell id="G3-LT5RlxalLHWrTvcE--63" value="" style="rounded=0;whiteSpace=wrap;html=1;strokeColor=#ede8c9;" vertex="1" parent="1">
          <mxGeometry x="460" y="160" width="190" height="100" as="geometry" />
        </mxCell>
        <mxCell id="G3-LT5RlxalLHWrTvcE--64" value="业务需求" style="text;html=1;align=center;verticalAlign=middle;resizable=0;points=[];autosize=1;strokeColor=none;fillColor=none;fontStyle=1" vertex="1" parent="1">
          <mxGeometry x="520" y="160" width="70" height="30" as="geometry" />
        </mxCell>
        <mxCell id="G3-LT5RlxalLHWrTvcE--65" value="转变为人/货/场的业务需求" style="rounded=1;whiteSpace=wrap;html=1;" vertex="1" parent="1">
          <mxGeometry x="495" y="190" width="120" height="60" as="geometry" />
        </mxCell>
        <mxCell id="G3-LT5RlxalLHWrTvcE--66" value="" style="rounded=0;whiteSpace=wrap;html=1;strokeColor=#ede8c9;" vertex="1" parent="1">
          <mxGeometry x="680" y="160" width="210" height="220" as="geometry" />
        </mxCell>
        <mxCell id="G3-LT5RlxalLHWrTvcE--67" value="钉钉云集" style="text;html=1;align=center;verticalAlign=middle;resizable=0;points=[];autosize=1;strokeColor=none;fillColor=none;fontStyle=1" vertex="1" parent="1">
          <mxGeometry x="750" y="160" width="70" height="30" as="geometry" />
        </mxCell>
        <mxCell id="G3-LT5RlxalLHWrTvcE--68" value="1. 更新问题状态" style="rounded=1;whiteSpace=wrap;html=1;" vertex="1" parent="1">
          <mxGeometry x="725" y="190" width="120" height="60" as="geometry" />
        </mxCell>
        <mxCell id="G3-LT5RlxalLHWrTvcE--69" value="2. 推送问题总结日志" style="rounded=1;whiteSpace=wrap;html=1;" vertex="1" parent="1">
          <mxGeometry x="725" y="280" width="120" height="60" as="geometry" />
        </mxCell>
        <mxCell id="G3-LT5RlxalLHWrTvcE--70" value="业务对象：销售部" style="text;html=1;align=left;verticalAlign=middle;resizable=0;points=[];autosize=1;strokeColor=none;fillColor=none;fontStyle=1" vertex="1" parent="1">
          <mxGeometry x="289" y="400" width="120" height="30" as="geometry" />
        </mxCell>
        <mxCell id="G3-LT5RlxalLHWrTvcE--71" value="业务对象：门店员工" style="text;html=1;align=left;verticalAlign=middle;resizable=0;points=[];autosize=1;strokeColor=none;fillColor=none;fontStyle=1" vertex="1" parent="1">
          <mxGeometry x="70" y="400" width="130" height="30" as="geometry" />
        </mxCell>
        <mxCell id="G3-LT5RlxalLHWrTvcE--72" value="业务对象：销售部" style="text;html=1;align=left;verticalAlign=middle;resizable=0;points=[];autosize=1;strokeColor=none;fillColor=none;fontStyle=1" vertex="1" parent="1">
          <mxGeometry x="725" y="400" width="120" height="30" as="geometry" />
        </mxCell>
        <mxCell id="G3-LT5RlxalLHWrTvcE--73" value="终端反馈处理业务模型" style="text;html=1;align=center;verticalAlign=middle;resizable=0;points=[];autosize=1;strokeColor=none;fillColor=none;fontStyle=1" vertex="1" parent="1">
          <mxGeometry width="140" height="30" as="geometry" />
        </mxCell>
      </root>
    </mxGraphModel>
  </diagram>
</mxfile>
